<svg version="1.0" xmlns="http://www.w3.org/2000/svg" width="682.667" height="682.667" viewBox="0 0 512 512"><path d="M95 4146c-67-29-105-106-91-181 9-47 59-102 104-115 26-8 785-10 2474-8l2437 3 27 21c53 39 69 71 69 134s-16 95-69 134l-27 21-2447 2c-2019 2-2452 0-2477-11zM95 2546c-67-29-105-106-91-181 9-47 59-102 104-115 26-8 785-10 2474-8l2437 3 27 21c53 39 69 71 69 134s-16 95-69 134l-27 21-2447 2c-2019 2-2452 0-2477-11zM95 946C28 917-10 840 4 765c9-47 59-102 104-115 26-8 785-10 2474-8l2437 3 27 21c53 39 69 71 69 134s-16 95-69 134l-27 21-2447 2c-2019 2-2452 0-2477-11z" transform="matrix(.1 0 0 -.1 0 512)"/></svg>  